<?xml version="1.0" encoding="iso-8859-1"?>
<!-- Generator: Adobe Illustrator 19.0.0, SVG Export Plug-In . SVG Version: 6.00 Build 0)  -->
<svg version="1.1" id="Layer_1" xmlns="http://www.w3.org/2000/svg" xmlns:xlink="http://www.w3.org/1999/xlink" x="0px" y="0px"
	 viewBox="0 0 512 512" style="enable-background:new 0 0 512 512;" xml:space="preserve">
<g>
	<g>
		<rect x="271" y="241" width="61" height="60"/>
	</g>
</g>
<g>
	<g>
		<rect x="362" y="241" width="60" height="60"/>
	</g>
</g>
<g>
	<g>
		<path d="M271,331v60h32.516c3.259-22.474,13.319-42.726,28.484-58.251V331H271z"/>
	</g>
</g>
<g>
	<g>
		<rect x="180" y="331" width="61" height="60"/>
	</g>
</g>
<g>
	<g>
		<rect x="90" y="331" width="60" height="60"/>
	</g>
</g>
<g>
	<g>
		<rect x="90" y="241" width="60" height="60"/>
	</g>
</g>
<g>
	<g>
		<rect x="180" y="241" width="61" height="60"/>
	</g>
</g>
<g>
	<g>
		<path d="M467,61h-15V46c0-8.291-6.709-15-15-15c-8.291,0-15,6.709-15,15v15h-60V46c0-8.291-6.709-15-15-15
			c-8.291,0-15,6.709-15,15v15h-61V46c0-8.291-6.709-15-15-15c-8.291,0-15,6.709-15,15v15h-61V46c0-8.291-6.709-15-15-15
			s-15,6.709-15,15v15H90V46c0-8.291-6.709-15-15-15s-15,6.709-15,15v15H45C20.186,61,0,81.186,0,106v360c0,8.291,6.709,15,15,15
			h318.749c-16.115-15.742-26.797-36.691-30.2-60H75c-8.291,0-15-6.709-15-15V226c0-8.291,6.709-15,15-15h362
			c8.291,0,15,6.709,15,15v85.532c35.345,16.921,60,52.742,60,94.468V106C512,81.186,491.814,61,467,61z M482,151H30v-45
			c0-8.276,6.724-15,15-15h15v15c0,8.291,6.709,15,15,15s15-6.709,15-15V91h60v15c0,8.291,6.709,15,15,15s15-6.709,15-15V91h61v15
			c0,8.291,6.709,15,15,15s15-6.709,15-15V91h61v15c0,8.291,6.709,15,15,15c8.291,0,15-6.709,15-15V91h60v15c0,8.291,6.709,15,15,15
			c8.291,0,15-6.709,15-15V91h15c8.276,0,15,6.724,15,15V151z"/>
	</g>
</g>
<g>
	<g>
		<path d="M407,331c-41.353,0-75,33.647-75,75c0,41.353,33.647,75,75,75c41.353,0,75-33.647,75-75C482,364.647,448.353,331,407,331z
			 M447.606,416.605l-30,30c-5.859,5.859-15.352,5.859-21.211,0l-30-30c-5.86-5.859-5.86-15.351,0-21.21
			c5.859-5.859,15.352-5.859,21.211,0L407,414.789l19.395-19.395c5.859-5.859,15.352-5.859,21.211,0
			S453.465,410.746,447.606,416.605z"/>
	</g>
</g>
<g>
</g>
<g>
</g>
<g>
</g>
<g>
</g>
<g>
</g>
<g>
</g>
<g>
</g>
<g>
</g>
<g>
</g>
<g>
</g>
<g>
</g>
<g>
</g>
<g>
</g>
<g>
</g>
<g>
</g>
</svg>
