<svg height="512pt" viewBox="0 0 512 512.00002" width="512pt" xmlns="http://www.w3.org/2000/svg"><path d="m431.667969 15c0-8.285156-6.71875-15-15-15h-80.335938c-4.300781 0-8.167969 1.820312-10.902343 4.722656l106.238281 106.238282zm0 0"/><path d="m500.425781 222.144531-206.394531-206.390625c-10.15625-10.160156-23.664062-15.753906-38.03125-15.753906s-27.875 5.59375-38.03125 15.753906l-206.394531 206.390625c-7.355469 7.359375-11.574219 17.542969-11.574219 27.960938 0 19.472656 15.140625 35.464843 34.265625 36.851562v-14.890625c0-12.019531 4.683594-23.324218 13.183594-31.820312l176.730469-176.730469c8.5-8.5 19.800781-13.183594 31.820312-13.183594s23.320312 4.683594 31.820312 13.183594l176.730469 176.730469c8.5 8.5 13.183594 19.800781 13.183594 31.820312v14.890625c19.125-1.386719 34.265625-17.378906 34.265625-36.851562v-.015625c0-10.402344-4.21875-20.585938-11.574219-27.945313zm0 0"/><path d="m303.132812 319.199219h50.332032v192.800781h-50.332032zm0 0"/><path d="m158.53125 319.199219h50.335938v50.332031h-50.335938zm0 0"/><path d="m266.605469 84.726562c-5.855469-5.859374-15.355469-5.859374-21.210938 0l-176.734375 176.734376c-2.8125 2.8125-4.394531 6.628906-4.394531 10.605468v224.933594c0 8.285156 6.714844 15 15 15h193.867187v-207.800781c0-8.285157 6.714844-15 15-15h80.332032c8.285156 0 15 6.714843 15 15v207.800781h49.269531c8.28125 0 15-6.714844 15-15v-224.933594c0-3.976562-1.582031-7.792968-4.394531-10.605468zm-27.738281 299.804688c0 8.285156-6.714844 15-15 15h-80.332032c-8.285156 0-15-6.714844-15-15v-80.332031c0-8.285157 6.714844-15 15-15h80.332032c8.285156 0 15 6.714843 15 15zm0 0"/></svg>