<?xml version="1.0" encoding="UTF-8" standalone="no"?>
<!DOCTYPE svg PUBLIC "-//W3C//DTD SVG 20010904//EN"
              "http://www.w3.org/TR/2001/REC-SVG-20010904/DTD/svg10.dtd">

<svg xmlns="http://www.w3.org/2000/svg"
     width="5.68889in" height="5.68889in"
     viewBox="0 0 512 512">
  <path id="Selection #1"
        fill="none" stroke="black" stroke-width="1"
        d="M 47.00,16.09
           C 40.07,17.96 34.15,19.80 28.00,23.45
             11.86,33.03 0.09,50.98 0.00,70.00
             0.00,70.00 0.00,88.00 0.00,88.00
             0.00,88.00 0.00,122.00 0.00,122.00
             0.00,122.00 0.00,441.00 0.00,441.00
             0.01,448.38 0.91,453.09 3.61,460.00
             5.59,465.04 8.17,469.74 11.52,474.00
             21.68,486.93 37.36,495.92 54.00,496.00
             54.00,496.00 71.00,496.00 71.00,496.00
             71.00,496.00 104.00,496.00 104.00,496.00
             104.00,496.00 457.00,496.00 457.00,496.00
             485.04,495.96 511.66,471.56 512.00,443.00
             512.00,443.00 512.00,310.00 512.00,310.00
             512.00,310.00 512.00,71.00 512.00,71.00
             511.96,42.96 487.56,16.34 459.00,16.09
             459.00,16.09 369.00,16.09 369.00,16.09
             369.00,16.09 189.00,16.09 189.00,16.09
             189.00,16.09 96.00,16.09 96.00,16.09
             96.00,16.09 47.00,16.09 47.00,16.09 Z
           M 323.00,103.29
           C 346.90,101.02 369.50,110.75 380.63,133.00
             396.58,164.91 377.44,207.39 341.00,212.70
             329.12,214.43 315.64,212.89 305.00,207.10
             276.78,191.74 267.01,155.07 284.55,128.00
             288.15,122.44 294.55,115.97 300.00,112.22
             306.98,107.41 314.70,104.67 323.00,103.29 Z
           M 177.00,217.34
           C 180.53,216.96 182.65,216.87 186.00,218.41
             191.28,220.86 194.44,225.53 197.88,230.00
             197.88,230.00 212.58,249.00 212.58,249.00
             212.58,249.00 266.12,319.00 266.12,319.00
             266.12,319.00 292.29,352.91 292.29,352.91
             294.60,355.35 296.99,357.12 300.00,358.62
             314.92,366.09 325.13,355.87 335.00,346.00
             335.00,346.00 349.00,332.00 349.00,332.00
             355.71,325.38 363.13,320.24 373.00,322.93
             384.12,325.96 389.83,337.13 395.98,346.00
             395.98,346.00 434.42,401.00 434.42,401.00
             438.96,407.41 450.41,421.74 451.39,429.00
             452.88,440.04 441.11,441.99 433.00,442.00
             433.00,442.00 87.00,442.00 87.00,442.00
             78.01,441.99 67.81,439.90 66.79,429.00
             66.15,422.18 69.82,415.87 72.75,410.00
             72.75,410.00 87.75,381.00 87.75,381.00
             87.75,381.00 146.75,264.00 146.75,264.00
             146.75,264.00 161.75,234.00 161.75,234.00
             165.50,226.52 168.26,219.89 177.00,217.34 Z" />
</svg>
