<svg width="651" height="419" viewBox="0 0 651 419" fill="none" xmlns="http://www.w3.org/2000/svg">
<g filter="url(#filter0_dd)">
<path d="M633.185 10H377.617V39.1955C363.007 20.1313 335.968 10 311.327 10H212.872H14V231.036C14 273.086 57.1761 310.016 115.617 310.016C155.304 310.016 187.468 294.22 202.841 269.927V303.48H303.258V237.027C306.965 233.977 310.563 230.927 314.052 227.659C336.622 219.27 363.007 224.282 376.527 228.53C376.854 228.639 377.29 228.748 377.617 228.966V303.589H633.185V10V10Z" fill="#5C8727"/>
<path d="M490.133 322.434H421.662V335.616H430.93V386.926H421.662V400.107H490.133V375.378H475.196V386.926H451.209V366.554H470.617V353.482H451.209V335.616H475.196V347.054H490.133V322.434Z" fill="white"/>
<path d="M392.339 288.774H430.718C425.484 278.969 418.724 266.877 412.946 258.053C408.475 251.19 400.843 243.02 392.339 236.81V288.774Z" fill="black"/>
<path d="M371.071 322.434H333.564V335.616H343.268V386.926H333.564V400.107H371.071V386.926H362.894V365.792H384.046V386.926H376.195V400.107H413.484V386.926H403.671V335.616H413.484V322.434H376.195V335.616H384.046V352.61H362.894V335.616H371.071V322.434Z" fill="white"/>
<path d="M327.357 322.434H256.923V353.699H270.334V335.616H282V386.926H270.334V400.107H313.837V386.926H302.171V335.616H314.164V353.699H327.357V322.434Z" fill="white"/>
<path d="M189.434 181.469C179.294 184.737 154.108 193.561 162.722 203.039C172.643 213.932 182.347 205.326 190.306 198.136C198.811 188.114 204.807 184.192 221.598 184.192C228.358 184.192 260.74 177.983 254.307 191.709C248.202 204.89 247.656 226.46 240.897 236.7C235.009 245.742 218.872 247.703 218 252.496C217.673 254.239 220.181 254.893 221.489 255.111C231.411 256.963 249.401 251.952 258.778 248.684C267.609 245.633 276.877 240.84 285.599 235.175C305.552 214.913 300.536 176.893 297.702 160.008C282.437 151.62 269.354 148.787 248.965 138.111C235.772 145.083 213.094 158.156 200.555 161.315C198.048 161.969 194.122 159.681 190.197 156.522C181.584 160.77 173.298 167.089 165.993 173.843C175.369 175.477 196.957 178.963 189.434 181.469Z" fill="black"/>
<path d="M223.338 269.71C221.376 269.819 219.413 269.601 217.56 269.383V288.774H288.539V247.595C269.24 260.232 246.998 268.947 223.338 269.71Z" fill="black"/>
<path d="M198.371 322.434H165.771V335.616H176.128V386.926H165.771V400.107H199.788V386.926H189.975V343.132L223.448 400.652H240.784V335.616H251.687V322.434H216.797V335.616H226.937V370.803L198.371 322.434Z" fill="white"/>
<path d="M152.141 386.926L135.896 335.616H146.363V322.543H95.6635V335.616H106.021L90.8662 386.926H81.2715V399.999H115.616V386.926H105.258L109.401 373.635H129.572L133.279 386.926H123.357V399.999H161.518V386.926H152.141ZM126.301 362.197H112.89L119.868 338.884" fill="white"/>
<path d="M77.0197 329.189C71.7863 324.722 64.4812 322.543 54.8865 322.543H14V335.616H23.9218V386.926H14V399.999H54.8865V386.926H44.0925V371.892H51.5065C57.0671 371.892 61.6464 371.566 65.2444 370.803C68.9515 370.149 72.2224 368.842 75.0572 366.99C77.892 365.138 80.2906 362.415 82.0351 358.929C83.8887 355.443 84.7609 351.521 84.7609 347.163C84.7609 339.647 82.1442 333.655 77.0197 329.189ZM60.4471 355.552C58.4845 357.839 54.0143 358.929 47.0363 358.929H44.0925V335.507H47.9085C51.9427 335.507 54.8865 335.725 56.631 336.161C58.3755 336.596 60.0109 337.795 61.4283 339.865C62.8457 341.826 63.4999 344.222 63.4999 347.055C63.3909 350.541 62.4096 353.373 60.4471 355.552Z" fill="white"/>
<path d="M201.209 111.968V24.708H131.212V225.699C131.212 232.671 124.997 236.92 116.384 236.92C108.424 236.92 101.883 232.671 101.883 225.699V24.708H28.832V230.057C28.832 266.006 66.4476 295.42 116.384 295.42C155.744 295.42 185.618 277.336 196.63 252.171C196.63 252.062 196.739 251.953 196.739 251.953C196.848 251.844 196.848 251.626 196.848 251.517C198.048 248.685 199.247 245.744 199.901 242.693C200.337 241.386 200.773 239.752 201.209 238.554C201.864 236.484 202.518 234.523 203.499 232.671C204.48 230.492 210.804 221.233 212.767 220.361C213.094 220.252 212.876 221.015 212.876 221.233C211.676 225.699 211.458 230.275 211.567 234.959C232.392 243.347 233.155 225.263 233.374 211.755C233.592 202.168 245.694 193.018 228.031 195.741C220.726 196.83 208.624 197.157 202.736 202.713C199.356 207.18 193.141 213.171 193.25 217.42C193.359 220.688 200.119 224.937 197.939 225.808C195.322 226.788 182.347 221.777 179.185 220.47C170.899 233.543 146.912 211.864 144.623 203.803C143.968 201.515 145.277 196.395 146.694 191.819C117.365 164.912 176.351 149.442 185.291 131.25C186.381 121.336 190.415 114.473 201.209 111.968Z" fill="black"/>
<path d="M201.645 133.318C201.209 133.645 200.664 133.971 200.228 134.407C198.483 138.002 198.919 141.379 203.935 143.558C213.42 147.807 227.922 141.052 248.31 134.952C276.44 139.636 304.243 145.301 317.109 145.628L350.581 126.455C332.046 125.583 311.657 113.491 293.013 114.145C265.21 115.125 253.871 130.703 234.136 132.446C224.542 133.209 209.604 126.89 201.645 133.318Z" fill="black"/>
<path d="M377.506 102.926V79.504C377.506 46.1688 345.451 24.708 311.433 24.708H217.667V110.66C228.134 110.442 238.274 110.225 248.959 107.61C261.497 104.56 275.453 98.786 288.646 96.4983V78.1967H298.895C306.527 78.1967 311.106 81.138 311.106 88.7637V97.043C323.427 99.5486 338.364 104.669 350.03 107.065C356.463 107.719 365.404 106.847 377.506 102.926Z" fill="black"/>
<path d="M532.116 72.7498V24.708H392.339V97.2609C402.37 92.7944 414.036 86.6939 427.556 78.0878C465.826 53.9035 478.691 54.8839 489.812 54.4482C498.971 54.1213 513.254 57.2806 532.116 72.7498Z" fill="black"/>
<path d="M463.425 84.732H532.115V81.137C525.246 76.8884 518.377 72.6399 513.798 70.4611C501.15 64.4695 484.686 65.9946 471.058 71.5505C459.936 76.1259 446.308 88.0001 429.299 99.9834C412.29 111.967 380.998 125.911 366.715 126.346C363.662 126.455 360.828 126.455 358.102 126.346L379.472 141.162H379.363C359.955 145.628 342.946 157.394 329.209 165.564C329.209 168.179 328.991 171.338 328.772 174.715C342.074 175.804 365.843 171.12 405.857 146.5C439.002 126.237 453.067 124.168 463.425 123.623V84.732Z" fill="black"/>
<path d="M532.115 288.772V233.323H463.426V178.527H508.674V148.46C504.421 146.063 500.169 143.885 496.789 142.795C477.273 135.932 464.407 138.656 450.342 143.122C438.894 146.717 424.611 155.977 407.493 167.633C390.375 179.29 359.193 192.798 344.91 193.343C337.714 193.56 331.39 193.343 325.72 192.798C324.521 197.809 322.776 203.038 320.596 208.049C332.916 205.87 364.317 203.365 390.702 214.259C416.434 224.826 423.957 243.563 430.172 263.717C433.442 274.393 435.623 282.672 436.931 288.772H532.115V288.772Z" fill="black"/>
<path d="M570.061 386.926L557.413 363.504C566.354 359.474 570.824 353.046 570.824 344.222C570.824 338.557 568.861 333.546 564.936 329.189C561.011 324.722 554.687 322.543 545.856 322.543H498.973V335.616H509.658V386.926H498.973V399.999H539.532V386.926H529.937V366.119H538.878L556.432 400.107H580.092V387.035H570.061V386.926ZM536.915 353.7H529.937V335.616H538.66C542.04 335.616 544.766 336.379 546.728 337.795C548.691 339.32 549.672 341.499 549.672 344.549C549.781 350.65 545.42 353.7 536.915 353.7Z" fill="white"/>
<path d="M618.462 24.708H547.483V288.774H618.462V24.708Z" fill="black"/>
<path d="M603.31 345.422C602.11 344.006 601.456 342.481 601.456 340.846C601.456 338.995 602.219 337.469 603.746 336.38C605.272 335.182 607.017 334.637 609.197 334.637C612.032 334.637 614.431 335.617 616.502 337.578C618.574 339.539 619.882 342.372 620.318 346.076H633.402V322.436H620.318V328.863C616.939 324.07 612.141 321.673 605.926 321.673C600.584 321.673 595.678 323.525 591.425 327.229C587.173 330.933 585.102 336.162 585.102 343.025C585.102 348.69 586.737 353.156 589.899 356.425C593.061 359.693 599.167 363.506 608.216 367.863C612.468 369.933 615.412 371.785 616.938 373.419C618.574 375.053 619.337 377.014 619.337 379.411C619.337 381.589 618.465 383.55 616.829 385.184C615.194 386.818 613.231 387.69 610.833 387.69C607.78 387.69 605.054 386.492 602.656 384.204C600.257 381.916 599.057 378.321 598.839 373.528H585.647V400H598.839V393.355C602.546 398.366 607.78 400.871 614.54 400.871C620.646 400.871 625.879 398.911 630.349 395.098C634.82 391.285 637 385.511 637 377.777C637 373.419 636.128 369.715 634.383 366.338C632.639 363.07 630.131 360.346 627.078 358.277C624.025 356.207 619.664 353.919 613.886 351.305C608.107 348.908 604.509 346.838 603.31 345.422Z" fill="white"/>
</g>
<defs>
<filter id="filter0_dd" x="0" y="0" width="651" height="418.871" filterUnits="userSpaceOnUse" color-interpolation-filters="sRGB">
<feFlood flood-opacity="0" result="BackgroundImageFix"/>
<feColorMatrix in="SourceAlpha" type="matrix" values="0 0 0 0 0 0 0 0 0 0 0 0 0 0 0 0 0 0 127 0"/>
<feOffset dy="4"/>
<feGaussianBlur stdDeviation="7"/>
<feColorMatrix type="matrix" values="0 0 0 0 0 0 0 0 0 0 0 0 0 0 0 0 0 0 0.15 0"/>
<feBlend mode="normal" in2="BackgroundImageFix" result="effect1_dropShadow"/>
<feColorMatrix in="SourceAlpha" type="matrix" values="0 0 0 0 0 0 0 0 0 0 0 0 0 0 0 0 0 0 127 0"/>
<feOffset dy="1"/>
<feGaussianBlur stdDeviation="2"/>
<feColorMatrix type="matrix" values="0 0 0 0 0 0 0 0 0 0 0 0 0 0 0 0 0 0 0.25 0"/>
<feBlend mode="normal" in2="effect1_dropShadow" result="effect2_dropShadow"/>
<feBlend mode="normal" in="SourceGraphic" in2="effect2_dropShadow" result="shape"/>
</filter>
</defs>
</svg>
